# xmcd
#
# Track frame offsets:
#	150
#	20590
#	42858
#	63517
#	80135
#	99263
#	121782
#	145173
#	167084
#	187479
#	206356
#	226665
#
# Disc length: 3315 seconds
#
# Revision: 1
# Processed by: cddbd v1.5.2PL0 Copyright (c) Steve Scherf et al.
# Submitted via: audiograbber 1.83.01
#
DISCID=9f0cf10c
DTITLE=Хассин Мяги and Контраст Блюз Бэнд - Песни хутора Хассин Мяги
DYEAR=2007
DGENRE=
TTITLE0=Подари мне рассвет
TTITLE1=Эй зима...
TTITLE2=Пора на дачу
TTITLE3=Метро блюз
TTITLE4=Лопнувшее стекло
TTITLE5=Шальная ночь
TTITLE6=Время старых козлов
TTITLE7=Всё это есть шоу-бизнес
TTITLE8=Река времени
TTITLE9=День чудной
TTITLE10=По одной
TTITLE11=Погоди, мой друг...
EXTD=
EXTT0=
EXTT1=
EXTT2=
EXTT3=
EXTT4=
EXTT5=
EXTT6=
EXTT7=
EXTT8=
EXTT9=
EXTT10=
EXTT11=
PLAYORDER=
